<svg xmlns="http://www.w3.org/2000/svg" xmlns:xlink="http://www.w3.org/1999/xlink" version="1.1" x="0px" y="0px" viewBox="0 0 100 100" style="enable-background:new 0 0 100 100;" xml:space="preserve"><path d="M15.9,84.5c-0.6,1.6-2.4,2.8-4.2,2.7C10,87.1,8.4,85.7,7.9,84c-0.4-1.6,0.2-3.3,0.8-4.8c2.5-6.1,6.2-11.6,9.8-17.1  c3.8-5.7,7.7-11.4,12.2-16.5c8.7-9.7,19.9-17,32.2-21.1c-2.6-0.5-5.4,1.1-8,0.2c-1.9-0.6-3.2-2.5-4.3-4.2c-0.2-0.4-0.5-0.9-0.2-1.2  c0.1-0.2,0.4-0.3,0.6-0.4c7.4-2.2,15.2-2.3,23-2.3c4.8,0,10.2,0.4,13.2,4.1c0.8,1.1,1.4,2.5,0.9,3.8c-0.2,0.6-0.6,1.1-1.1,1.5  c-7.5,8.5-14.9,17-22.4,25.5c-0.5,0.6-1.1,1.3-1.9,1.4c-1.5,0.4-2.8-0.9-3.7-2.1c-0.9-1.1-1.9-2.4-1.9-3.9c0-1.3,0.9-2.5,1.7-3.5  c3.5-4.4,6.9-8.7,10.4-13.1c-8.2,3-16.3,6.6-23.1,11.9c-8.1,6.3-14.3,14.8-20,23.4C22.3,71.8,18.5,77.9,15.9,84.5 M37.8,40.2  c-0.8,0.4-1.5,0.9-2.1,1.6c-0.2,0.2-0.4,0.5-0.4,0.8C36.4,42.1,37.2,41.2,37.8,40.2 M38.6,39.7c0.4-0.2,0.7-0.6,0.9-1.1  c-0.7,0.1-1.3,0.6-1.5,1.2C38.2,40.1,38.5,39.9,38.6,39.7 M42.1,36.6c-0.6,0.3-1.2,0.7-1.5,1.3c0.7-0.2,1.3-0.7,1.7-1.3L42.1,36.6z"></path></svg>