<svg xmlns="http://www.w3.org/2000/svg" xmlns:xlink="http://www.w3.org/1999/xlink" viewBox="0 0 100 100" version="1.1" x="0px" y="0px"><title>3.6</title><desc>Created with Sketch.</desc><g stroke="none" stroke-width="1" fill="none" fill-rule="evenodd"><g fill="#000000"><path d="M46,47 L36,47 L36,47 C34.3431458,47 33,48.3431458 33,50 L33,50 L33,50 C33,51.6568542 34.3431458,53 36,53 L46,53 L46,53 C46.5522847,53 47,53.4477153 47,54 L47,64 L47,64 C47,65.6568542 48.3431458,67 50,67 L50,67 L50,67 C51.6568542,67 53,65.6568542 53,64 L53,54 L53,54 C53,53.4477153 53.4477153,53 54,53 L64,53 L64,53 C65.6568542,53 67,51.6568542 67,50 L67,50 L67,50 C67,48.3431458 65.6568542,47 64,47 L54,47 L54,47 C53.4477153,47 53,46.5522847 53,46 L53,36 L53,36 C53,34.3431458 51.6568542,33 50,33 L50,33 L50,33 C48.3431458,33 47,34.3431458 47,36 L47,46 L47,46 C47,46.5522847 46.5522847,47 46,47 Z" transform="translate(50.000000, 50.000000) rotate(45.000000) translate(-50.000000, -50.000000) "></path></g></g></svg>