<svg xmlns="http://www.w3.org/2000/svg" xmlns:xlink="http://www.w3.org/1999/xlink" version="1.1" x="0px" y="0px" viewBox="0 0 100 100" enable-background="new 0 0 100 100" xml:space="preserve"><g display="none"><rect x="-84.797" y="-48.881" display="inline" fill="#000000" width="1376.931" height="568.472"></rect></g><g><g><path d="M78.726,38.855c-1.004-5.516-5.47-8.942-11.654-8.942H47.311c-2.241,0-4.064,1.823-4.064,4.063v14.491    c0,2.241,1.823,4.064,4.064,4.064s4.063-1.823,4.063-4.064V38.294c0-0.69,0.56-1.25,1.25-1.25h6.67    c0.376,0,0.731,0.169,0.969,0.46c0.237,0.292,0.331,0.675,0.255,1.042c-0.212,1.028-0.311,1.905-0.311,2.759    c0,5.312,3.095,9.992,7.359,11.129c0.667,0.178,1.063,0.863,0.886,1.53c-0.178,0.667-0.865,1.06-1.53,0.886    c-1.231-0.328-2.373-0.879-3.411-1.595c0.139,0.511,0.22,1.046,0.22,1.601v0.961c0,1.972-0.942,3.725-2.395,4.845    c1.453,1.12,2.395,2.872,2.395,4.845v0.96c0,0.956-0.227,1.858-0.619,2.665h2.621c7.037,0,12.845-5.133,13.575-11.701H94.59    V40.797H78.947C78.844,39.842,78.749,38.98,78.726,38.855z"></path><path d="M61.232,66.466v-0.96c0-1.882-1.448-3.415-3.286-3.586c-0.111,0.006-0.222,0.017-0.335,0.017H34.637    c-0.113,0-0.223-0.011-0.335-0.017c-1.838,0.172-3.286,1.705-3.286,3.586v0.96c0,1.997,1.624,3.621,3.621,3.621h22.974    C59.608,70.087,61.232,68.463,61.232,66.466z"></path><path d="M9.031,38.136h24.857c0.246-0.03,0.495-0.051,0.75-0.051h6.109v-4.109c0-1.524,0.527-2.926,1.402-4.041H9.031    c-1.997,0-3.621,1.624-3.621,3.621v0.96C5.41,36.512,7.034,38.136,9.031,38.136z"></path><path d="M34.637,40.585c-1.997,0-3.621,1.624-3.621,3.62v0.961c0,1.882,1.448,3.415,3.286,3.586    c0.111-0.006,0.222-0.017,0.335-0.017h6.123c-0.004-0.09-0.014-0.178-0.014-0.269v-7.882H34.637z"></path><path d="M57.611,40.585h-3.737v7.882c0,0.091-0.01,0.179-0.014,0.269h3.75c0.113,0,0.223,0.011,0.335,0.017    c0.497-0.047,0.962-0.191,1.381-0.418c-1.032-2.072-1.619-4.474-1.619-7.029c0-0.232,0.01-0.469,0.023-0.708    C57.69,40.596,57.652,40.585,57.611,40.585z"></path><path d="M47.311,55.032c-2.629,0-4.896-1.558-5.943-3.796h-6.73c-1.997,0-3.621,1.624-3.621,3.62v0.961    c0,1.996,1.624,3.62,3.621,3.62h22.974c1.997,0,3.621-1.624,3.621-3.62v-0.961c0-1.996-1.624-3.62-3.621-3.62h-4.357    C52.207,53.474,49.94,55.032,47.311,55.032z"></path></g></g></svg>