<?xml version="1.0" encoding="utf-8"?>
<!-- Generator: Adobe Illustrator 22.0.1, SVG Export Plug-In . SVG Version: 6.00 Build 0)  -->
<svg version="1.1" id="Capa_1" xmlns="http://www.w3.org/2000/svg" xmlns:xlink="http://www.w3.org/1999/xlink" x="0px" y="0px"
	 viewBox="0 0 170.1 170.1" style="enable-background:new 0 0 170.1 170.1;" xml:space="preserve">
<style type="text/css">
	.st0{fill:#848587;}
</style>
<g>
	<g>
		<path class="st0" d="M116.2,160.2H57c-23.2,0-42.1-18.9-42.1-42.1V55.1C15,31.9,33.8,13,57,13h59.1c23.2,0,42.1,18.9,42.1,42.1
			v63.1C158.2,141.4,139.4,160.2,116.2,160.2z M57,23.8c-17.2,0-31.3,14-31.3,31.3v63.1c0,17.2,14,31.3,31.3,31.3h59.1
			c17.2,0,31.3-14,31.3-31.3V55.1c0-17.2-14-31.3-31.3-31.3H57z"/>
	</g>
	<g>
		<path class="st0" d="M86.6,125.5c-21.6,0-39.1-17.5-39.1-39.1c0-10.6,4.4-21,12-28.4c7.4-7.2,17.1-11,27.3-10.7
			c12.2,0.4,22.3,4.5,29.2,11.9c6.6,7,9.9,16.5,9.7,27.4l0,0c-0.2,10.4-4.3,20.2-11.6,27.5C106.8,121.4,97,125.5,86.6,125.5z
			 M85.7,60.5c-6.3,0-12.4,2.5-17,7c-5.1,4.9-8,11.8-8,18.9c0,14.3,11.6,25.9,25.9,25.9c14.2,0,25.6-11.5,25.9-26.1
			c0.2-7.4-2-13.6-6.1-18.1c-4.5-4.8-11.4-7.5-20-7.7C86.2,60.5,85.9,60.5,85.7,60.5z"/>
	</g>
	<g>
		<circle class="st0" cx="126.7" cy="46.2" r="9.1"/>
	</g>
</g>
</svg>
