<?xml version="1.0" encoding="utf-8"?>
<!-- Generator: Adobe Illustrator 22.0.1, SVG Export Plug-In . SVG Version: 6.00 Build 0)  -->
<svg version="1.1" id="Capa_1" xmlns="http://www.w3.org/2000/svg" xmlns:xlink="http://www.w3.org/1999/xlink" x="0px" y="0px"
	 viewBox="0 0 170.1 170.1" style="enable-background:new 0 0 170.1 170.1;" xml:space="preserve">
<style type="text/css">
	.st0{fill: white;}
</style>
<path class="st0" d="M12.2,59.6h31.2v100.2H12.2V59.6z M27.8,9.8c10,0,18,8.1,18,18.1c0,10-8.1,18.1-18,18.1
	c-10,0-18.1-8.1-18.1-18.1C9.7,17.9,17.8,9.8,27.8,9.8"/>
<path class="st0" d="M62.9,59.6h29.9v13.7h0.4c4.2-7.9,14.3-16.2,29.5-16.2c31.5,0,37.4,20.7,37.4,47.7v55h-31.1v-48.7
	c0-11.6-0.2-26.6-16.2-26.6C96.5,84.5,94,97.2,94,110.3v49.6H62.9V59.6z"/>
</svg>
