<svg xmlns:dc="http://purl.org/dc/elements/1.1/" xmlns:cc="http://creativecommons.org/ns#" xmlns:rdf="http://www.w3.org/1999/02/22-rdf-syntax-ns#" xmlns:svg="http://www.w3.org/2000/svg" xmlns="http://www.w3.org/2000/svg" xmlns:sodipodi="http://sodipodi.sourceforge.net/DTD/sodipodi-0.dtd" xmlns:inkscape="http://www.inkscape.org/namespaces/inkscape" version="1.1" x="0px" y="0px" viewBox="0 0 100 100"><g transform="translate(0,-952.36218)"><path style="font-size:medium;font-style:normal;font-variant:normal;font-weight:normal;font-stretch:normal;text-indent:0;text-align:start;text-decoration:none;line-height:normal;letter-spacing:normal;word-spacing:normal;text-transform:none;direction:ltr;block-progression:tb;writing-mode:lr-tb;text-anchor:start;baseline-shift:baseline;opacity:1;color:#000000;fill:#000000;fill-opacity:1;stroke:none;stroke-width:4;marker:none;visibility:visible;display:inline;overflow:visible;enable-background:accumulate;font-family:Sans;-inkscape-font-specification:Sans" d="M 45 14 C 42.557534 14 40.431496 15.47754 39.5 17.59375 C 38.728879 17.23278 37.90112 17 37 17 C 33.710594 17 31 19.7106 31 23 L 31 25.34375 C 30.369345 25.11766 29.704123 25 29 25 C 25.754875 25 23.102864 27.64563 23.03125 30.875 L 23 30.875 L 23 31 L 21.46875 57.84375 A 2.0029871 2.0029871 0 1 0 25.46875 58.0625 L 27 31.09375 A 2.0002 2.0002 0 0 0 27 31 C 27 29.85741 27.857407 29 29 29 C 30.040291 29 30.827567 29.71415 30.96875 30.6875 A 2.0002 2.0002 0 0 0 31 30.875 L 31 51 A 2.0002 2.0002 0 1 0 35 51 L 35 23 C 35 21.8574 35.857406 21 37 21 C 38.035332 21 38.821808 21.72179 38.96875 22.6875 A 2.0002 2.0002 0 0 0 39 22.875 L 39 50 A 2.0002 2.0002 0 1 0 43 50 L 43 20 C 43 18.85741 43.857406 18 45 18 C 46.142594 18 47 18.85741 47 20 L 47 49 A 2.0002 2.0002 0 1 0 51 49 L 51 22.875 L 51 22.75 C 51.12001 21.74919 51.942131 21 53 21 C 54.139994 21 54.919232 21.83271 55 23.125 L 57 55.125 A 2.0002 2.0002 0 0 0 60.03125 56.6875 C 65.214994 53.5773 69.879965 50 74 50 C 74.57601 50 75 50.424 75 51 C 75 51.2422 74.91533 51.42245 74.78125 51.59375 C 74.7264 51.65775 69.988227 57.18425 64.8125 63.15625 C 59.606888 69.16285 53.916315 75.65725 52.53125 77.09375 C 49.624568 80.10815 45.554947 82 41 82 C 32.101406 82 25 74.8986 25 66 A 2.0002 2.0002 0 1 0 21 66 C 21 77.0454 29.954594 86 41 86 C 46.653819 86 51.773508 83.6424 55.40625 79.875 C 57.139232 78.0777 62.631593 71.7641 67.84375 65.75 C 73.055907 59.7359 77.875 54.125 77.875 54.125 A 2.0002 2.0002 0 0 0 77.9375 54.0625 C 78.600762 53.2152 79 52.1516 79 51 C 79 48.2622 76.737698 46 74 46 C 68.971155 46 64.784959 48.8619 60.78125 51.5 L 59 22.875 C 58.804306 19.74393 56.292004 17 53 17 C 52.093993 17 51.274244 17.26 50.5 17.625 C 49.573988 15.4962 47.451612 14 45 14 z " transform="translate(0,952.36218)"></path></g></svg>