<svg xmlns="http://www.w3.org/2000/svg" xmlns:xlink="http://www.w3.org/1999/xlink" version="1.1" x="0px" y="0px" viewBox="0 0 100 100" enable-background="new 0 0 100 100" xml:space="preserve"><path class="st0" d="M45.566,74.646c-1.909-0.285-3.142-2.183-3.142-4.835c0-2.858,0.784-4.308,2.331-4.308l0.208-0.044l15.793,0.057  c1.74,0.011,2.88,1.403,3.077,3.734c0.192,2.286-0.647,4.995-2.582,5.515l-0.198,0.108C61.053,74.873,47.541,74.94,45.566,74.646z   M63.791,74.719c0,0,1.535-2.101,1.033-5.698c-0.147-1.056-0.348-2.035-0.769-2.891l-0.404-0.822c0,0,3.216-0.545,3.339-5.994  c0.055-2.456-0.321-4.396-1.104-5.767l-0.365-0.639l1.964-2.382l0.584,1.785c1.041,3.177,4.439,5.723,4.845,5.822  c0.703,0.172,0.569-0.562,0.275-0.738c-6.16-3.708-5.366-15.046-5.33-15.526c0.039-0.478-0.171-0.869-0.396-0.974  c-0.001,0-1.634-0.761-2.731-1.25c-2.876-1.281-6.114-5.733-6.294-5.573c-1.986,1.775-10.862,7.421-15.168,4.128  c0,0-0.214-0.225-0.262-0.644c-0.047-0.406,0.228-0.712,0.228-0.712c0.29-0.331,8.988-10.219,8.988-10.219l0.328-0.072  c1.67-0.365,8.941-1.432,15.372-1.417l0.227-0.015l0.37,0.147c6.957,2.758,11.545,5.969,14.168,8.177  c0.087,0.073,8.887,0.695,8.887,0.695l0.247,0.717c0.069,0.235,0.383,34.721-0.02,35.407l-0.25,0.425c0,0-8.855,0.485-9.409,0.64  C76.867,73.22,63.791,74.719,63.791,74.719z M39.62,63.736c-1.765,0-2.82-2.739-2.82-5.387c0-2.76,1.186-4.763,2.82-4.763h24.331  l0.153,0.051c1.269,0.42,1.886,2.253,1.886,5.602c0,3.567-2.652,4.519-4.218,4.519C61.626,63.757,39.62,63.736,39.62,63.736z   M38.134,51.819c-1.495,0-3.092-1.295-3.092-4.931c0-2.101,0.91-3.704,2.376-4.186l28.023-0.111  c0.652,0.247,1.428,1.159,1.423,4.104c-0.006,3.888-2.028,4.866-2.647,5.073l-0.155,0.052H38.134z M11.789,39.337  c-2.304-0.434-3.793-2.097-3.793-4.238c0-1.349,0.686-3.666,5.278-4.029c0.271-0.008,34.236-1.077,34.236-1.077l-1.586,1.762  c-1.489,1.674-2.915,3.278-4.42,5.013c-0.145,0.167-0.234,0.428-0.241,0.699c-0.006,0.276,0.073,0.549,0.213,0.731  c0.096,0.125,2.339,2.66,2.339,2.66L11.789,39.337z M52.285,40.819l2.447-1.817c1.25-0.928,2.354-1.838,3.062-2.439l0.783-0.665  l0.644,0.801c0.474,0.589,1.231,1.477,2.149,2.361l1.774,1.709L52.285,40.819z"></path>
<style type="text/css">
	.st0{fill: white;}
</style>
</svg>