<svg id="Layer_1" data-name="Layer 1" xmlns="http://www.w3.org/2000/svg" viewBox="0 0 66.38 66.38"><title>cross</title><path class="st0" d="M48.18,37.27,30,19.07h0a7.73,7.73,0,0,0-10.92,0h0a7.73,7.73,0,0,0,0,10.92l18.2,18.19h0a2.58,2.58,0,0,1,0,3.64L19.07,70h0a7.73,7.73,0,0,0,0,10.92h0a7.73,7.73,0,0,0,10.92,0l18.19-18.2h0a2.58,2.58,0,0,1,3.64,0L70,80.93h0a7.73,7.73,0,0,0,10.92,0h0a7.73,7.73,0,0,0,0-10.92L62.73,51.82h0a2.58,2.58,0,0,1,0-3.64L80.93,30h0a7.73,7.73,0,0,0,0-10.92h0a7.73,7.73,0,0,0-10.92,0L51.82,37.27h0A2.58,2.58,0,0,1,48.18,37.27Z" transform="translate(-16.81 -16.81)"/>
<style type="text/css">
	.st0{fill: #cf84a8;}
</style>
</svg>